# 3ds Max Wavefront OBJ Exporter v0.97b - (c)2007 guruware
# File Created: 23.03.2017 05:13:34

#
# object Box001
#

v  0.0000 0.0000 -0.0000
v  0.0000 0.0000 -13.3333
v  13.3333 0.0000 -13.3333
v  13.3333 0.0000 -0.0000
v  26.6667 0.0000 -13.3333
v  26.6667 0.0000 -0.0000
v  40.0000 0.0000 -13.3333
v  40.0000 0.0000 -0.0000
v  0.0000 0.0000 -26.6667
v  13.3333 0.0000 -26.6667
v  26.6667 0.0000 -26.6667
v  40.0000 0.0000 -26.6667
v  0.0000 0.0000 -40.0000
v  13.3333 0.0000 -40.0000
v  26.6667 0.0000 -40.0000
v  40.0000 0.0000 -40.0000
v  0.0000 30.0000 -0.0000
v  13.3333 30.0000 -0.0000
v  13.3333 30.0000 -13.3333
v  0.0000 30.0000 -13.3333
v  26.6667 30.0000 -0.0000
v  26.6667 30.0000 -13.3333
v  40.0000 30.0000 -0.0000
v  40.0000 30.0000 -13.3333
v  13.3333 30.0000 -26.6667
v  0.0000 30.0000 -26.6667
v  14.6955 90.8009 -14.6955
v  25.3045 90.8009 -14.6955
v  25.3045 90.8009 -25.3045
v  14.6955 90.8009 -25.3045
v  40.0000 30.0000 -26.6667
v  26.6667 30.0000 -26.6667
v  13.3333 30.0000 -40.0000
v  0.0000 30.0000 -40.0000
v  26.6667 30.0000 -40.0000
v  40.0000 30.0000 -40.0000
v  13.3333 10.0000 -0.0000
v  0.0000 10.0000 -0.0000
v  26.6667 10.0000 -0.0000
v  40.0000 10.0000 -0.0000
v  13.3333 20.0000 -0.0000
v  0.0000 20.0000 -0.0000
v  14.6955 11.3621 60.8009
v  25.3045 11.3621 60.8009
v  25.3045 18.6379 60.8009
v  14.6955 18.6379 60.8009
v  40.0000 20.0000 -0.0000
v  26.6667 20.0000 -0.0000
v  40.0000 10.0000 -13.3333
v  40.0000 10.0000 -26.6667
v  40.0000 10.0000 -40.0000
v  40.0000 20.0000 -13.3333
v  100.8009 11.3621 -14.6955
v  100.8009 11.3621 -25.3045
v  100.8009 18.6379 -25.3045
v  100.8009 18.6379 -14.6955
v  40.0000 20.0000 -40.0000
v  40.0000 20.0000 -26.6667
v  26.6667 10.0000 -40.0000
v  13.3333 10.0000 -40.0000
v  0.0000 10.0000 -40.0000
v  26.6667 20.0000 -40.0000
v  13.3333 20.0000 -40.0000
v  0.0000 20.0000 -40.0000
v  0.0000 10.0000 -26.6667
v  0.0000 10.0000 -13.3333
v  0.0000 20.0000 -26.6667
v  -60.8009 11.3621 -25.3045
v  -60.8009 11.3621 -14.6955
v  -60.8009 18.6379 -14.6955
v  -60.8009 18.6379 -25.3045
v  0.0000 20.0000 -13.3333
v  26.6667 46.5933 -13.3333
v  13.3333 46.5933 -13.3333
v  26.6667 46.5933 -26.6667
v  13.3333 46.5933 -26.6667
v  26.6667 10.0000 16.5933
v  13.3333 10.0000 16.5933
v  26.6667 20.0000 16.5933
v  13.3333 20.0000 16.5933
v  56.5933 10.0000 -26.6667
v  56.5933 10.0000 -13.3333
v  56.5933 20.0000 -26.6667
v  56.5933 20.0000 -13.3333
v  -16.5933 10.0000 -13.3333
v  -16.5933 10.0000 -26.6667
v  -16.5933 20.0000 -13.3333
v  -16.5933 20.0000 -26.6667
v  22.2088 54.8900 -17.7912
v  17.7912 54.8900 -17.7912
v  22.2088 54.8900 -22.2088
v  17.7912 54.8900 -22.2088
v  22.2088 14.4579 24.8900
v  17.7912 14.4579 24.8900
v  22.2088 15.5421 24.8900
v  17.7912 15.5421 24.8900
v  64.8900 14.4579 -22.2088
v  64.8900 14.4579 -17.7912
v  64.8900 15.5421 -22.2088
v  64.8900 15.5421 -17.7912
v  -24.8900 14.4579 -17.7912
v  -24.8900 14.4579 -22.2088
v  -24.8900 15.5421 -17.7912
v  -24.8900 15.5421 -22.2088
v  22.2088 70.8641 -17.7912
v  17.7912 70.8641 -17.7912
v  22.2088 70.8641 -22.2088
v  17.7912 70.8641 -22.2088
v  22.2088 14.4579 40.8641
v  17.7912 14.4579 40.8641
v  22.2088 15.5421 40.8641
v  17.7912 15.5421 40.8641
v  80.8641 14.4579 -22.2088
v  80.8641 14.4579 -17.7912
v  80.8641 15.5421 -22.2088
v  80.8641 15.5421 -17.7912
v  -40.8641 14.4579 -17.7912
v  -40.8641 14.4579 -22.2088
v  -40.8641 15.5421 -17.7912
v  -40.8641 15.5421 -22.2088
v  21.8373 70.8641 -18.1627
v  18.1627 70.8641 -18.1627
v  21.8373 70.8641 -21.8373
v  18.1627 70.8641 -21.8373
v  21.8373 14.8294 40.8641
v  18.1627 14.8294 40.8641
v  21.8373 15.1706 40.8641
v  18.1627 15.1706 40.8641
v  80.8641 14.8294 -21.8373
v  80.8641 14.8294 -18.1627
v  80.8641 15.1706 -21.8373
v  80.8641 15.1706 -18.1627
v  -40.8641 14.8294 -18.1627
v  -40.8641 14.8294 -21.8373
v  -40.8641 15.1706 -18.1627
v  -40.8641 15.1706 -21.8373
v  21.8373 86.5906 -18.1627
v  18.1627 86.5906 -18.1627
v  21.8373 86.5906 -21.8373
v  18.1627 86.5906 -21.8373
v  21.8373 14.8294 56.5906
v  18.1627 14.8294 56.5906
v  21.8373 15.1706 56.5906
v  18.1627 15.1706 56.5906
v  96.5906 14.8294 -21.8373
v  96.5906 14.8294 -18.1627
v  96.5906 15.1706 -21.8373
v  96.5906 15.1706 -18.1627
v  -56.5906 14.8294 -18.1627
v  -56.5906 14.8294 -21.8373
v  -56.5906 15.1706 -18.1627
v  -56.5906 15.1706 -21.8373
# 152 vertices

vn 0.0000 -1.0000 -0.0000
vn 0.0000 1.0000 -0.0000
vn 0.0000 0.0000 1.0000
vn 1.0000 0.0000 -0.0000
vn 0.0000 0.0000 -1.0000
vn -1.0000 0.0000 -0.0000
vn 0.0000 0.4733 0.8809
vn 0.8809 0.4733 -0.0000
vn 0.0000 0.4733 -0.8809
vn -0.8809 0.4733 -0.0000
vn 0.0000 -0.8809 0.4733
vn 0.8809 0.0000 0.4733
vn 0.0000 0.8809 0.4733
vn -0.8809 0.0000 0.4733
vn 0.4733 -0.8809 -0.0000
vn 0.4733 0.0000 -0.8809
vn 0.4733 0.8809 -0.0000
vn 0.4733 0.0000 0.8809
vn -0.4733 -0.8809 -0.0000
vn -0.4733 0.0000 0.8809
vn -0.4733 0.8809 -0.0000
vn -0.4733 0.0000 -0.8809
vn 0.0000 -0.6357 0.7719
vn 0.7719 -0.6357 -0.0000
vn 0.0000 -0.6357 -0.7719
vn -0.7719 -0.6357 -0.0000
vn 0.0000 -0.7719 -0.6357
vn 0.7719 0.0000 -0.6357
vn 0.0000 0.7719 -0.6357
vn -0.7719 0.0000 -0.6357
vn -0.6357 -0.7719 -0.0000
vn -0.6357 0.0000 -0.7719
vn -0.6357 0.7719 -0.0000
vn -0.6357 0.0000 0.7719
vn 0.6357 -0.7719 -0.0000
vn 0.6357 0.0000 0.7719
vn 0.6357 0.7719 -0.0000
vn 0.6357 0.0000 -0.7719
# 38 vertex normals

vt 1.0000 0.0000 0.0000
vt 1.0000 0.3333 0.0000
vt 0.6667 0.3333 0.0000
vt 0.6667 0.0000 0.0000
vt 0.3333 0.3333 0.0000
vt 0.3333 0.0000 0.0000
vt -0.0000 0.3333 0.0000
vt -0.0000 0.0000 0.0000
vt 1.0000 0.6667 0.0000
vt 0.6667 0.6667 0.0000
vt 0.3333 0.6667 0.0000
vt -0.0000 0.6667 0.0000
vt 1.0000 1.0000 0.0000
vt 0.6667 1.0000 0.0000
vt 0.3333 1.0000 0.0000
vt -0.0000 1.0000 0.0000
vt 0.0000 0.0000 0.0000
vt 0.0000 0.3333 0.0000
vt 0.0000 0.6667 0.0000
vt 0.0000 1.0000 0.0000
# 20 texture coords

o Box001
g Box001
s 2
f 1/1/1 2/2/1 3/3/1 
f 3/3/1 4/4/1 1/1/1 
f 4/4/1 3/3/1 5/5/1 
f 5/5/1 6/6/1 4/4/1 
f 6/6/1 5/5/1 7/7/1 
f 7/7/1 8/8/1 6/6/1 
f 2/2/1 9/9/1 10/10/1 
f 10/10/1 3/3/1 2/2/1 
f 3/3/1 10/10/1 11/11/1 
f 11/11/1 5/5/1 3/3/1 
f 5/5/1 11/11/1 12/12/1 
f 12/12/1 7/7/1 5/5/1 
f 9/9/1 13/13/1 14/14/1 
f 14/14/1 10/10/1 9/9/1 
f 10/10/1 14/14/1 15/15/1 
f 15/15/1 11/11/1 10/10/1 
f 11/11/1 15/15/1 16/16/1 
f 16/16/1 12/12/1 11/11/1 
s 4
f 17/17/2 18/6/2 19/5/2 
f 19/5/2 20/18/2 17/17/2 
f 18/6/2 21/4/2 22/3/2 
f 22/3/2 19/5/2 18/6/2 
f 21/4/2 23/1/2 24/2/2 
f 24/2/2 22/3/2 21/4/2 
f 20/18/2 19/5/2 25/11/2 
f 25/11/2 26/19/2 20/18/2 
f 27/5/2 28/3/2 29/10/2 
f 29/10/2 30/11/2 27/5/2 
f 22/3/2 24/2/2 31/9/2 
f 31/9/2 32/10/2 22/3/2 
f 26/19/2 25/11/2 33/15/2 
f 33/15/2 34/20/2 26/19/2 
f 25/11/2 32/10/2 35/14/2 
f 35/14/2 33/15/2 25/11/2 
f 32/10/2 31/9/2 36/13/2 
f 36/13/2 35/14/2 32/10/2 
s 8
f 1/17/3 4/6/3 37/5/3 
f 37/5/3 38/18/3 1/17/3 
f 4/6/3 6/4/3 39/3/3 
f 39/3/3 37/5/3 4/6/3 
f 6/4/3 8/1/3 40/2/3 
f 40/2/3 39/3/3 6/4/3 
f 38/18/3 37/5/3 41/11/3 
f 41/11/3 42/19/3 38/18/3 
f 43/5/3 44/3/3 45/10/3 
f 45/10/3 46/11/3 43/5/3 
f 39/3/3 40/2/3 47/9/3 
f 47/9/3 48/10/3 39/3/3 
f 42/19/3 41/11/3 18/15/3 
f 18/15/3 17/20/3 42/19/3 
f 41/11/3 48/10/3 21/14/3 
f 21/14/3 18/15/3 41/11/3 
f 48/10/3 47/9/3 23/13/3 
f 23/13/3 21/14/3 48/10/3 
s 16
f 8/17/4 7/6/4 49/5/4 
f 49/5/4 40/18/4 8/17/4 
f 7/6/4 12/4/4 50/3/4 
f 50/3/4 49/5/4 7/6/4 
f 12/4/4 16/1/4 51/2/4 
f 51/2/4 50/3/4 12/4/4 
f 40/18/4 49/5/4 52/11/4 
f 52/11/4 47/19/4 40/18/4 
f 53/5/4 54/3/4 55/10/4 
f 55/10/4 56/11/4 53/5/4 
f 50/3/4 51/2/4 57/9/4 
f 57/9/4 58/10/4 50/3/4 
f 47/19/4 52/11/4 24/15/4 
f 24/15/4 23/20/4 47/19/4 
f 52/11/4 58/10/4 31/14/4 
f 31/14/4 24/15/4 52/11/4 
f 58/10/4 57/9/4 36/13/4 
f 36/13/4 31/14/4 58/10/4 
s 32
f 16/17/5 15/6/5 59/5/5 
f 59/5/5 51/18/5 16/17/5 
f 15/6/5 14/4/5 60/3/5 
f 60/3/5 59/5/5 15/6/5 
f 14/4/5 13/1/5 61/2/5 
f 61/2/5 60/3/5 14/4/5 
f 51/18/5 59/5/5 62/11/5 
f 62/11/5 57/19/5 51/18/5 
f 59/5/5 60/3/5 63/10/5 
f 63/10/5 62/11/5 59/5/5 
f 60/3/5 61/2/5 64/9/5 
f 64/9/5 63/10/5 60/3/5 
f 57/19/5 62/11/5 35/15/5 
f 35/15/5 36/20/5 57/19/5 
f 62/11/5 63/10/5 33/14/5 
f 33/14/5 35/15/5 62/11/5 
f 63/10/5 64/9/5 34/13/5 
f 34/13/5 33/14/5 63/10/5 
s 64
f 13/17/6 9/6/6 65/5/6 
f 65/5/6 61/18/6 13/17/6 
f 9/6/6 2/4/6 66/3/6 
f 66/3/6 65/5/6 9/6/6 
f 2/4/6 1/1/6 38/2/6 
f 38/2/6 66/3/6 2/4/6 
f 61/18/6 65/5/6 67/11/6 
f 67/11/6 64/19/6 61/18/6 
f 68/5/6 69/3/6 70/10/6 
f 70/10/6 71/11/6 68/5/6 
f 66/3/6 38/2/6 42/9/6 
f 42/9/6 72/10/6 66/3/6 
f 64/19/6 67/11/6 26/15/6 
f 26/15/6 34/20/6 64/19/6 
f 67/11/6 72/10/6 20/14/6 
f 20/14/6 26/15/6 67/11/6 
f 72/10/6 42/9/6 17/13/6 
f 17/13/6 20/14/6 72/10/6 
s off
f 19/5/3 22/3/3 73/3/3 
f 73/3/3 74/5/3 19/5/3 
f 22/3/4 32/10/4 75/10/4 
f 75/10/4 73/3/4 22/3/4 
f 32/10/5 25/11/5 76/11/5 
f 76/11/5 75/10/5 32/10/5 
f 25/11/6 19/5/6 74/5/6 
f 74/5/6 76/11/6 25/11/6 
f 37/5/1 39/3/1 77/3/1 
f 77/3/1 78/5/1 37/5/1 
f 39/3/4 48/10/4 79/10/4 
f 79/10/4 77/3/4 39/3/4 
f 48/10/2 41/11/2 80/11/2 
f 80/11/2 79/10/2 48/10/2 
f 41/11/6 37/5/6 78/5/6 
f 78/5/6 80/11/6 41/11/6 
f 49/5/1 50/3/1 81/3/1 
f 81/3/1 82/5/1 49/5/1 
f 50/3/5 58/10/5 83/10/5 
f 83/10/5 81/3/5 50/3/5 
f 58/10/2 52/11/2 84/11/2 
f 84/11/2 83/10/2 58/10/2 
f 52/11/3 49/5/3 82/5/3 
f 82/5/3 84/11/3 52/11/3 
f 65/5/1 66/3/1 85/3/1 
f 85/3/1 86/5/1 65/5/1 
f 66/3/3 72/10/3 87/10/3 
f 87/10/3 85/3/3 66/3/3 
f 72/10/2 67/11/2 88/11/2 
f 88/11/2 87/10/2 72/10/2 
f 67/11/5 65/5/5 86/5/5 
f 86/5/5 88/11/5 67/11/5 
f 74/5/7 73/3/7 89/3/7 
f 89/3/7 90/5/7 74/5/7 
f 73/3/8 75/10/8 91/10/8 
f 91/10/8 89/3/8 73/3/8 
f 75/10/9 76/11/9 92/11/9 
f 92/11/9 91/10/9 75/10/9 
f 76/11/10 74/5/10 90/5/10 
f 90/5/10 92/11/10 76/11/10 
f 78/5/11 77/3/11 93/3/11 
f 93/3/11 94/5/11 78/5/11 
f 77/3/12 79/10/12 95/10/12 
f 95/10/12 93/3/12 77/3/12 
f 79/10/13 80/11/13 96/11/13 
f 96/11/13 95/10/13 79/10/13 
f 80/11/14 78/5/14 94/5/14 
f 94/5/14 96/11/14 80/11/14 
f 82/5/15 81/3/15 97/3/15 
f 97/3/15 98/5/15 82/5/15 
f 81/3/16 83/10/16 99/10/16 
f 99/10/16 97/3/16 81/3/16 
f 83/10/17 84/11/17 100/11/17 
f 100/11/17 99/10/17 83/10/17 
f 84/11/18 82/5/18 98/5/18 
f 98/5/18 100/11/18 84/11/18 
f 86/5/19 85/3/19 101/3/19 
f 101/3/19 102/5/19 86/5/19 
f 85/3/20 87/10/20 103/10/20 
f 103/10/20 101/3/20 85/3/20 
f 87/10/21 88/11/21 104/11/21 
f 104/11/21 103/10/21 87/10/21 
f 88/11/22 86/5/22 102/5/22 
f 102/5/22 104/11/22 88/11/22 
f 90/5/3 89/3/3 105/3/3 
f 105/3/3 106/5/3 90/5/3 
f 89/3/4 91/10/4 107/10/4 
f 107/10/4 105/3/4 89/3/4 
f 91/10/5 92/11/5 108/11/5 
f 108/11/5 107/10/5 91/10/5 
f 92/11/6 90/5/6 106/5/6 
f 106/5/6 108/11/6 92/11/6 
f 94/5/1 93/3/1 109/3/1 
f 109/3/1 110/5/1 94/5/1 
f 93/3/4 95/10/4 111/10/4 
f 111/10/4 109/3/4 93/3/4 
f 95/10/2 96/11/2 112/11/2 
f 112/11/2 111/10/2 95/10/2 
f 96/11/6 94/5/6 110/5/6 
f 110/5/6 112/11/6 96/11/6 
f 98/5/1 97/3/1 113/3/1 
f 113/3/1 114/5/1 98/5/1 
f 97/3/5 99/10/5 115/10/5 
f 115/10/5 113/3/5 97/3/5 
f 99/10/2 100/11/2 116/11/2 
f 116/11/2 115/10/2 99/10/2 
f 100/11/3 98/5/3 114/5/3 
f 114/5/3 116/11/3 100/11/3 
f 102/5/1 101/3/1 117/3/1 
f 117/3/1 118/5/1 102/5/1 
f 101/3/3 103/10/3 119/10/3 
f 119/10/3 117/3/3 101/3/3 
f 103/10/2 104/11/2 120/11/2 
f 120/11/2 119/10/2 103/10/2 
f 104/11/5 102/5/5 118/5/5 
f 118/5/5 120/11/5 104/11/5 
f 106/5/2 105/3/2 121/3/2 
f 121/3/2 122/5/2 106/5/2 
f 105/3/2 107/10/2 123/10/2 
f 123/10/2 121/3/2 105/3/2 
f 107/10/2 108/11/2 124/11/2 
f 124/11/2 123/10/2 107/10/2 
f 108/11/2 106/5/2 122/5/2 
f 122/5/2 124/11/2 108/11/2 
f 110/5/3 109/3/3 125/3/3 
f 125/3/3 126/5/3 110/5/3 
f 109/3/3 111/10/3 127/10/3 
f 127/10/3 125/3/3 109/3/3 
f 111/10/3 112/11/3 128/11/3 
f 128/11/3 127/10/3 111/10/3 
f 112/11/3 110/5/3 126/5/3 
f 126/5/3 128/11/3 112/11/3 
f 114/5/4 113/3/4 129/3/4 
f 129/3/4 130/5/4 114/5/4 
f 113/3/4 115/10/4 131/10/4 
f 131/10/4 129/3/4 113/3/4 
f 115/10/4 116/11/4 132/11/4 
f 132/11/4 131/10/4 115/10/4 
f 116/11/4 114/5/4 130/5/4 
f 130/5/4 132/11/4 116/11/4 
f 118/5/6 117/3/6 133/3/6 
f 133/3/6 134/5/6 118/5/6 
f 117/3/6 119/10/6 135/10/6 
f 135/10/6 133/3/6 117/3/6 
f 119/10/6 120/11/6 136/11/6 
f 136/11/6 135/10/6 119/10/6 
f 120/11/6 118/5/6 134/5/6 
f 134/5/6 136/11/6 120/11/6 
f 122/5/3 121/3/3 137/3/3 
f 137/3/3 138/5/3 122/5/3 
f 121/3/4 123/10/4 139/10/4 
f 139/10/4 137/3/4 121/3/4 
f 123/10/5 124/11/5 140/11/5 
f 140/11/5 139/10/5 123/10/5 
f 124/11/6 122/5/6 138/5/6 
f 138/5/6 140/11/6 124/11/6 
f 126/5/1 125/3/1 141/3/1 
f 141/3/1 142/5/1 126/5/1 
f 125/3/4 127/10/4 143/10/4 
f 143/10/4 141/3/4 125/3/4 
f 127/10/2 128/11/2 144/11/2 
f 144/11/2 143/10/2 127/10/2 
f 128/11/6 126/5/6 142/5/6 
f 142/5/6 144/11/6 128/11/6 
f 130/5/1 129/3/1 145/3/1 
f 145/3/1 146/5/1 130/5/1 
f 129/3/5 131/10/5 147/10/5 
f 147/10/5 145/3/5 129/3/5 
f 131/10/2 132/11/2 148/11/2 
f 148/11/2 147/10/2 131/10/2 
f 132/11/3 130/5/3 146/5/3 
f 146/5/3 148/11/3 132/11/3 
f 134/5/1 133/3/1 149/3/1 
f 149/3/1 150/5/1 134/5/1 
f 133/3/3 135/10/3 151/10/3 
f 151/10/3 149/3/3 133/3/3 
f 135/10/2 136/11/2 152/11/2 
f 152/11/2 151/10/2 135/10/2 
f 136/11/5 134/5/5 150/5/5 
f 150/5/5 152/11/5 136/11/5 
f 138/5/23 137/3/23 28/3/23 
f 28/3/23 27/5/23 138/5/23 
f 137/3/24 139/10/24 29/10/24 
f 29/10/24 28/3/24 137/3/24 
f 139/10/25 140/11/25 30/11/25 
f 30/11/25 29/10/25 139/10/25 
f 140/11/26 138/5/26 27/5/26 
f 27/5/26 30/11/26 140/11/26 
f 142/5/27 141/3/27 44/3/27 
f 44/3/27 43/5/27 142/5/27 
f 141/3/28 143/10/28 45/10/28 
f 45/10/28 44/3/28 141/3/28 
f 143/10/29 144/11/29 46/11/29 
f 46/11/29 45/10/29 143/10/29 
f 144/11/30 142/5/30 43/5/30 
f 43/5/30 46/11/30 144/11/30 
f 146/5/31 145/3/31 54/3/31 
f 54/3/31 53/5/31 146/5/31 
f 145/3/32 147/10/32 55/10/32 
f 55/10/32 54/3/32 145/3/32 
f 147/10/33 148/11/33 56/11/33 
f 56/11/33 55/10/33 147/10/33 
f 148/11/34 146/5/34 53/5/34 
f 53/5/34 56/11/34 148/11/34 
f 150/5/35 149/3/35 69/3/35 
f 69/3/35 68/5/35 150/5/35 
f 149/3/36 151/10/36 70/10/36 
f 70/10/36 69/3/36 149/3/36 
f 151/10/37 152/11/37 71/11/37 
f 71/11/37 70/10/37 151/10/37 
f 152/11/38 150/5/38 68/5/38 
f 68/5/38 71/11/38 152/11/38 
# 300 faces

